<svg width="1440" height="288" viewBox="0 0 1440 288" fill="none" xmlns="http://www.w3.org/2000/svg">
<path fill-rule="evenodd" clip-rule="evenodd" d="M-35.7447 123.429L-0.0808601 109.714C34.3532 96 104.451 68.5714 174.549 68.5714C245.877 68.5714 315.974 96 386.072 82.2857C456.17 68.5714 526.268 13.7143 596.366 6.85714C666.464 0 737.791 41.1429 807.889 75.4286C877.987 109.714 948.085 137.143 1018.18 144C1088.28 150.857 1158.38 137.143 1229.71 109.714C1299.8 82.2857 1369.9 41.1429 1404.34 20.5714L1440 0V288H1404.34C1369.9 288 1299.8 288 1229.71 288C1158.38 288 1088.28 288 1018.18 288C948.085 288 877.987 288 807.889 288C737.791 288 666.464 288 596.366 288C526.268 288 456.17 288 386.072 288C315.974 288 245.877 288 174.549 288C104.451 288 34.3532 288 -0.0808601 288H-35.7447V123.429Z" fill="#F1F3FC"/>
</svg>
