<svg width="602" height="672" viewBox="0 0 602 672" fill="none" xmlns="http://www.w3.org/2000/svg">
<circle cx="300.568" cy="373.568" r="225" transform="rotate(-15 300.568 373.568)" fill="url(#paint0_linear_1522_2085)"/>
<path d="M313.116 294.919C312.981 299.188 337.53 327.604 349.658 345.359C361.786 363.114 386.788 404.288 386.788 404.288L415.305 390.69C415.305 390.69 400.802 359.858 384.437 331.614C368.073 303.371 350.896 281.585 346.746 279.421C342.981 277.458 335.834 278.899 329.904 281.623C323.975 284.348 313.252 290.64 313.116 294.919V294.919Z" fill="#29B3B6"/>
<g filter="url(#filter0_d_1522_2085)">
<path d="M221.542 317.487C224.962 323.348 232.122 387.892 238.565 424.999C245.008 462.107 261.865 545.025 261.865 545.025L233.746 554.537C233.746 554.537 218.536 496.678 206.492 440.588C194.447 384.498 187.949 336.664 188.803 329.462C189.577 322.925 195.086 317.779 200.853 315.656C206.619 313.533 218.113 311.612 221.542 317.487V317.487Z" fill="#29B3B6"/>
</g>
<path d="M209.119 296.079L235.867 459.07C235.867 459.07 251.1 529.229 260.896 538.315C267.091 544.062 279.132 549.643 307.827 545.613C336.523 541.583 349.752 535.168 365.868 527.284C369.787 525.367 392.703 509.962 394.64 494.671C396.713 478.305 378.337 419.034 378.337 419.034L327.959 261.292L209.119 296.079Z" fill="#29B3B6"/>
<path d="M353.913 152.033C353.913 152.033 413.463 114.864 426.783 167.518C440.104 220.173 371.242 222.645 371.242 222.645L353.913 152.033Z" fill="#29B3B6"/>
<path d="M375.674 165.666C375.674 165.666 403.411 148.353 409.615 172.878C415.82 197.403 383.745 198.555 383.745 198.555L375.674 165.666Z" fill="#F5D2BA"/>
<path d="M129.96 215.335C129.96 215.335 61.6292 216.164 73.8336 269.15C86.038 322.136 146.789 286.095 146.789 286.095L129.96 215.335Z" fill="#29B3B6"/>
<path d="M117.261 239.206C117.261 239.206 85.4348 239.592 91.1193 264.272C96.8039 288.952 125.1 272.164 125.1 272.164L117.261 239.206Z" fill="#F5D2BA"/>
<path opacity="0.997" d="M313.05 131.827L158.8 177.306C137.673 183.535 124.693 205.613 129.808 226.617L143.095 281.184C148.21 302.188 169.483 314.166 190.61 307.937L344.859 262.457C365.986 256.228 378.967 234.151 373.852 213.147L360.564 158.58C355.45 137.575 334.177 125.598 313.05 131.827Z" fill="#29B3B6" stroke="#27ACAF" stroke-width="2"/>
<path d="M197.59 190.009C239.041 192.002 252.88 187.288 284.436 163.11C315.122 137.284 342.967 163.888 342.667 192.348C341.563 216.746 341.052 245.418 316.095 249.635C270.818 257.285 269.378 245.015 212.807 281.379C180.92 301.877 164.594 254.175 161.577 248.327C147.218 220.493 156.14 188.017 197.59 190.009Z" fill="#F5D2BA"/>
<path opacity="0.997" d="M229.598 244.844C233.545 243.679 234.842 234.914 232.494 225.265C230.146 215.617 225.044 208.739 221.097 209.904C217.15 211.069 215.853 219.835 218.201 229.483C220.548 239.131 225.651 246.009 229.598 244.844Z" fill="#2B1100"/>
<path opacity="0.997" d="M282.562 229.86C286.509 228.695 287.806 219.929 285.458 210.281C283.111 200.633 278.008 193.755 274.061 194.92C270.114 196.084 268.817 204.85 271.165 214.499C273.512 224.147 278.615 231.025 282.562 229.86Z" fill="#2B1100"/>
<path d="M245.525 230.931C246.54 225.793 258.261 222.089 262.423 225.941C265.574 228.859 259.705 235.959 256.762 237.179C254.034 238.311 244.511 236.069 245.525 230.931Z" fill="#502D16"/>
<path d="M296.182 241.999L317.702 217.241C317.702 217.241 325.862 228.587 318.567 238.189C310.625 248.644 296.182 241.999 296.182 241.999V241.999Z" fill="#651616"/>
<path opacity="0.997" d="M317.527 335.41C313.122 317.45 294.89 307.183 276.803 312.479C258.716 317.774 247.624 336.626 252.028 354.586L283.109 481.327C287.513 499.286 305.746 509.553 323.833 504.258C341.92 498.962 353.012 480.11 348.608 462.15L317.527 335.41Z" fill="#F5D2BA"/>
<g filter="url(#filter1_d_1522_2085)">
<path d="M386.309 405.116C383.905 403.29 387.387 375.103 388.299 358.941C389.211 342.778 391.036 306.256 391.036 306.256L422.692 299.83C422.692 299.83 419.835 331.429 420.902 355.162C421.968 378.896 423.445 384.551 421.037 388.324C418.852 391.748 411.888 403.951 405.33 406.73C398.773 409.51 388.718 406.946 386.309 405.116V405.116Z" fill="#29B3B6"/>
</g>
<path d="M377.805 303.227L423.143 289.796C423.143 289.796 430.624 321.462 409.153 328.097C384.883 335.597 377.805 303.227 377.805 303.227V303.227Z" fill="#F5D2BA" stroke="#DEAA87" stroke-width="2"/>
<path d="M377.802 304.114C377.802 304.114 365.273 266.576 373.462 264.031C381.549 261.517 389.843 300.571 389.843 300.571L377.802 304.114Z" fill="#F5D2BA" stroke="#DEAA87" stroke-width="2"/>
<path d="M387.917 291.937C387.917 291.937 390.482 316.471 398.782 314.101C406.979 311.761 399.197 288.603 399.197 288.603C394.796 286.916 390.13 288.634 387.917 291.937V291.937Z" fill="#F5D2BA" stroke="#DEAA87" stroke-width="2"/>
<path d="M398.879 288.836C398.879 288.836 401.443 313.369 409.744 311C417.94 308.66 410.158 285.502 410.158 285.502C405.758 283.815 401.091 285.532 398.879 288.836V288.836Z" fill="#F5D2BA" stroke="#DEAA87" stroke-width="2"/>
<path d="M409.839 285.735C409.839 285.735 412.403 310.269 420.703 307.899C428.9 305.559 421.118 282.401 421.118 282.401C416.717 280.714 412.051 282.431 409.839 285.735V285.735Z" fill="#F5D2BA" stroke="#DEAA87" stroke-width="2"/>
<path opacity="0.997" d="M388.879 298.458L378.431 301.554L380.227 308.965L390.675 305.87L388.879 298.458Z" fill="#F5D2BA"/>
<path d="M375.093 314.09C375.093 314.09 397.705 321.916 399.825 313.63C401.919 305.448 377.876 302.783 377.876 302.783C374.194 305.967 373.337 310.783 375.093 314.09Z" fill="#F5D2BA" stroke="#DEAA87" stroke-width="2"/>
<path opacity="0.997" d="M201.21 452.41C200.87 471.687 180.658 488.076 155.51 488.518C130.362 488.961 110.716 473.273 111.057 453.996C111.397 434.719 131.609 418.33 156.757 417.888C181.905 417.445 201.551 433.133 201.21 452.41Z" fill="#96DA85" stroke="#55C03A" stroke-width="2"/>
<path opacity="0.997" d="M262.488 489.687C287.93 489.239 308.842 472.613 309.196 452.551C309.551 432.489 289.213 416.588 263.771 417.036C238.329 417.483 217.417 434.11 217.063 454.172C216.709 474.234 237.046 490.134 262.488 489.687Z" fill="#85B6DA" stroke="white" stroke-width="10"/>
<path opacity="0.997" d="M369.486 489.845C394.928 489.398 415.84 472.771 416.194 452.709C416.548 432.647 396.211 416.747 370.769 417.194C345.327 417.642 324.415 434.268 324.061 454.33C323.706 474.392 344.044 490.293 369.486 489.845Z" fill="#8785DA"/>
<path opacity="0.997" d="M522.201 452.885C521.861 472.163 501.649 488.551 476.501 488.994C451.353 489.436 431.707 473.748 432.047 454.471C432.388 435.194 452.6 418.805 477.748 418.363C502.896 417.92 522.542 433.608 522.201 452.885Z" fill="#DA85D1" stroke="#D472CB" stroke-width="2"/>
<path opacity="0.997" d="M254.56 538.721C254.202 558.021 233.988 574.409 208.86 574.83C183.733 575.25 164.115 559.529 164.474 540.228C164.832 520.927 185.046 504.539 210.173 504.118C235.301 503.698 254.918 519.42 254.56 538.721Z" fill="#DA7979" stroke="#CE4F4F" stroke-width="2"/>
<path opacity="0.997" d="M361.557 538.879C361.199 558.18 340.985 574.568 315.857 574.988C290.73 575.408 271.112 559.687 271.471 540.386C271.829 521.085 292.043 504.697 317.171 504.277C342.298 503.856 361.916 519.578 361.557 538.879Z" fill="#EFA47B" stroke="#E8864F" stroke-width="2"/>
<path opacity="0.997" d="M468.555 539.037C468.196 558.338 447.982 574.726 422.855 575.147C397.728 575.567 378.11 559.845 378.468 540.544C378.827 521.243 399.041 504.855 424.168 504.435C449.296 504.015 468.913 519.736 468.555 539.037Z" fill="#E4CC77" stroke="#CCA829" stroke-width="2"/>
<path d="M59.772 336.719C59.772 336.719 75.1896 337.173 84.8724 323.727L84.9273 329.022C84.9273 329.022 79.3525 337.949 65.9232 343.646L59.772 336.719Z" fill="url(#paint1_linear_1522_2085)"/>
<path d="M85.0507 329.166C85.0507 329.166 85.37 343.715 92.1262 346.8C98.8824 349.884 89.1941 351.887 89.1941 351.887C89.1941 351.887 81.2723 335.992 82.5335 330.566C83.7947 325.14 85.0506 329.166 85.0506 329.166L85.0507 329.166Z" fill="url(#paint2_linear_1522_2085)"/>
<path opacity="0.997" d="M99.7978 355.877C103.623 353.718 105.186 348.906 103.288 345.129C101.391 341.352 96.7509 340.039 92.9254 342.198C89.0998 344.357 87.5371 349.169 89.4348 352.946C91.3326 356.723 95.9722 358.036 99.7978 355.877Z" fill="url(#paint3_linear_1522_2085)"/>
<path d="M414.134 22.1854C414.134 22.1854 414.825 55.1589 387.434 74.7841L398.164 75.3192C398.164 75.3192 416.337 64.1136 428.08 35.8731L414.134 22.1854Z" fill="url(#paint4_linear_1522_2085)"/>
<path d="M398.244 75.4204C398.244 75.4204 427.131 77.2208 433.158 91.6554C439.186 106.09 443.303 85.8897 443.303 85.8897C443.303 85.8897 411.853 68.0119 401.06 70.2405C390.267 72.4691 398.244 75.4204 398.244 75.4204L398.244 75.4204Z" fill="url(#paint5_linear_1522_2085)"/>
<path opacity="0.997" d="M450.936 108.589C446.552 116.545 436.882 119.488 429.338 115.162C421.793 110.837 419.231 100.882 423.615 92.9263C427.998 84.9708 437.668 82.0278 445.213 86.353C452.757 90.6781 455.319 100.634 450.936 108.589Z" fill="url(#paint6_linear_1522_2085)"/>
<path d="M11.8861 155.81C9.54533 153.088 39.2493 149.92 53.0838 139.741C55.1754 138.202 53.6079 146.437 53.6079 146.437C53.6079 146.437 41.4088 161.932 20.8524 165.568C20.8524 165.568 14.2269 158.533 11.8861 155.81V155.81Z" fill="url(#paint7_linear_1522_2085)"/>
<path d="M53.7894 146.65C53.7894 146.65 49.5382 167.367 58.0397 173.96C66.5412 180.553 52.2743 180.202 52.2743 180.202C52.2743 180.202 46.2727 155.077 49.7986 147.805C53.3245 140.533 53.7894 146.65 53.7894 146.65L53.7894 146.65Z" fill="url(#paint8_linear_1522_2085)"/>
<path opacity="0.997" d="M65.9225 189.344C71.9468 187.551 75.6618 181.252 74.2202 175.276C72.7786 169.3 66.7264 165.909 60.7021 167.702C54.6778 169.495 50.9628 175.793 52.4044 181.769C53.846 187.746 59.8983 191.137 65.9225 189.344Z" fill="url(#paint9_linear_1522_2085)"/>
<path d="M52.8477 146.944C52.8477 146.944 37.7847 163.277 15.2105 159.424L20.0082 164.993C20.0082 164.993 25.2511 165.227 52.1868 159.461L52.8477 146.944Z" fill="url(#paint10_linear_1522_2085)"/>
<path d="M20.1246 165.07C20.1246 165.07 33.2447 180.678 28.8852 191.053C24.5257 201.428 36.7224 193.295 36.7224 193.295C36.7224 193.295 30.474 168.243 24.1071 163.88C17.7403 159.518 20.1246 165.07 20.1246 165.07L20.1246 165.07Z" fill="url(#paint11_linear_1522_2085)"/>
<path opacity="0.997" d="M30.4763 202.954C25.7947 204.347 21.0915 201.712 19.9714 197.068C18.8513 192.424 21.7385 187.53 26.42 186.136C31.1016 184.743 35.8048 187.378 36.9249 192.022C38.045 196.666 35.1578 201.56 30.4763 202.954Z" fill="url(#paint12_linear_1522_2085)"/>
<path d="M433.112 214.135C431.515 212.278 451.778 210.118 461.215 203.174C462.642 202.124 461.573 207.741 461.573 207.741C461.573 207.741 453.251 218.311 439.229 220.792C439.229 220.792 434.709 215.992 433.112 214.135V214.135Z" fill="url(#paint13_linear_1522_2085)"/>
<path d="M461.695 207.887C461.695 207.887 458.796 222.019 464.595 226.516C470.394 231.014 460.662 230.774 460.662 230.774C460.662 230.774 456.568 213.635 458.973 208.674C461.378 203.714 461.695 207.887 461.695 207.887L461.695 207.887Z" fill="url(#paint14_linear_1522_2085)"/>
<path opacity="0.997" d="M469.972 237.01C474.082 235.787 476.616 231.49 475.632 227.414C474.649 223.337 470.52 221.024 466.411 222.247C462.302 223.47 459.767 227.766 460.751 231.843C461.734 235.92 465.863 238.233 469.972 237.01Z" fill="url(#paint15_linear_1522_2085)"/>
<path d="M461.055 208.087C461.055 208.087 450.78 219.228 435.381 216.6L438.653 220.399C438.653 220.399 442.23 220.559 460.604 216.626L461.055 208.087Z" fill="url(#paint16_linear_1522_2085)"/>
<path d="M438.733 220.452C438.733 220.452 447.683 231.098 444.709 238.176C441.735 245.253 450.055 239.705 450.055 239.705C450.055 239.705 445.793 222.616 441.45 219.64C437.107 216.664 438.733 220.451 438.733 220.451L438.733 220.452Z" fill="url(#paint17_linear_1522_2085)"/>
<path opacity="0.997" d="M445.795 246.294C442.601 247.245 439.393 245.447 438.629 242.279C437.865 239.111 439.834 235.773 443.028 234.822C446.221 233.871 449.429 235.669 450.193 238.837C450.958 242.005 448.988 245.343 445.795 246.294Z" fill="url(#paint18_linear_1522_2085)"/>
<path d="M503.158 313.066C503.158 313.066 488.369 318.383 476.114 307.901L477.205 313.249C477.205 313.249 484.517 320.476 498.715 321.977L503.158 313.066Z" fill="url(#paint19_linear_1522_2085)"/>
<path d="M477.248 313.176C477.248 313.176 479.981 327.324 474.333 332.348C468.685 337.371 478.123 336.374 478.123 336.374C478.123 336.374 482.188 318.625 479.884 313.766C477.579 308.907 477.248 313.176 477.248 313.176L477.248 313.176Z" fill="url(#paint20_linear_1522_2085)"/>
<path opacity="0.997" d="M468.949 343.351C464.843 342.412 462.331 338.163 463.338 333.86C464.346 329.557 468.491 326.831 472.597 327.77C476.703 328.709 479.215 332.958 478.207 337.261C477.2 341.563 473.055 344.29 468.949 343.351Z" fill="url(#paint21_linear_1522_2085)"/>
<path d="M161.519 412.393C161.922 410.536 148.091 417.468 139.636 416.858C138.358 416.765 140.953 419.957 140.953 419.957C140.953 419.957 149.915 423.37 159.821 419.21C159.821 419.21 161.117 414.25 161.519 412.393V412.393Z" fill="url(#paint22_linear_1522_2085)"/>
<path d="M140.999 419.887C140.999 419.887 147.68 427.835 145.46 433.118C143.241 438.401 149.451 434.26 149.451 434.26C149.451 434.26 146.269 421.503 143.027 419.281C139.785 417.06 140.999 419.887 140.999 419.887L140.999 419.887Z" fill="url(#paint23_linear_1522_2085)"/>
<path opacity="0.997" d="M145.669 442.003C142.602 442.916 139.52 441.189 138.786 438.146C138.052 435.103 139.943 431.895 143.011 430.982C146.079 430.069 149.161 431.796 149.895 434.839C150.629 437.883 148.737 441.09 145.669 442.003Z" fill="url(#paint24_linear_1522_2085)"/>
<path d="M141.445 419.943C141.445 419.943 151.874 422.934 160.936 414.923L160.112 418.72C160.112 418.72 157.854 420.29 144.639 425.279L141.445 419.943Z" fill="url(#paint25_linear_1522_2085)"/>
<path d="M160.264 418.864C160.264 418.864 158.099 429.414 162.428 432.771C166.757 436.128 159.492 435.95 159.492 435.95C159.492 435.95 156.436 423.156 158.232 419.453C160.027 415.749 160.264 418.864 160.264 418.864L160.264 418.864Z" fill="url(#paint26_linear_1522_2085)"/>
<path opacity="0.997" d="M164.611 438.468C166.995 437.758 168.465 435.266 167.895 432.901C167.324 430.537 164.929 429.195 162.545 429.904C160.161 430.614 158.691 433.106 159.262 435.471C159.832 437.836 162.227 439.178 164.611 438.468Z" fill="url(#paint27_linear_1522_2085)"/>
<path d="M168.381 85.9381C168.381 85.9381 177.738 98.6134 193.715 96.8364L189.854 100.636C189.854 100.636 179.784 102.5 167.152 95.7792L168.381 85.9381Z" fill="url(#paint28_linear_1522_2085)"/>
<path d="M189.87 100.629C189.87 100.629 179.715 110.82 181.627 118.147C183.54 125.474 176.226 119.359 176.226 119.359C176.226 119.359 182.718 102.376 187.344 99.6413C191.971 96.9066 189.87 100.629 189.87 100.629L189.87 100.629Z" fill="url(#paint29_linear_1522_2085)"/>
<path opacity="0.997" d="M179.998 130.322C183.936 131.84 188.387 129.728 189.941 125.604C191.495 121.481 189.563 116.907 185.626 115.389C181.689 113.871 177.237 115.983 175.683 120.107C174.129 124.23 176.061 128.804 179.998 130.322Z" fill="url(#paint30_linear_1522_2085)"/>
<path d="M317.206 79.109C318.381 77.5719 303.28 77.1454 296.204 72.347C295.135 71.6215 295.971 75.9073 295.971 75.9073C295.971 75.9073 302.241 83.5835 312.699 84.6422C312.699 84.6422 316.03 80.646 317.206 79.109V79.109Z" fill="url(#paint31_linear_1522_2085)"/>
<path d="M295.962 75.8943C295.962 75.8943 298.149 86.2805 294.002 89.9836C289.855 93.6866 296.864 92.932 296.864 92.932C296.864 92.932 299.696 79.8855 297.929 76.3217C296.162 72.7579 295.962 75.8942 295.962 75.8942L295.962 75.8943Z" fill="url(#paint32_linear_1522_2085)"/>
<path opacity="0.997" d="M290.139 98.0894C287.099 97.4115 285.2 94.307 285.897 91.1554C286.594 88.0037 289.623 85.9982 292.663 86.6761C295.702 87.354 297.601 90.4585 296.904 93.6102C296.208 96.7619 293.179 98.7673 290.139 98.0894Z" fill="url(#paint33_linear_1522_2085)"/>
<path d="M296.392 76.0127C296.392 76.0127 304.128 84.0493 315.587 81.0528L313.174 84.2116C313.174 84.2116 310.51 84.5566 296.788 82.6304L296.392 76.0127Z" fill="url(#paint34_linear_1522_2085)"/>
<path d="M313.17 84.2084C313.17 84.2084 306.797 92.6929 308.986 97.8042C311.176 102.916 305.147 99.2634 305.147 99.2634C305.147 99.2634 308.1 86.2436 311.208 83.7628C314.316 81.2821 313.17 84.2083 313.17 84.2083L313.17 84.2084Z" fill="url(#paint35_linear_1522_2085)"/>
<path opacity="0.997" d="M308.385 103.985C310.747 104.511 313.101 102.953 313.643 100.503C314.184 98.054 312.709 95.6415 310.347 95.1149C307.985 94.5883 305.631 96.147 305.09 98.5963C304.548 101.046 306.023 103.458 308.385 103.985Z" fill="url(#paint36_linear_1522_2085)"/>
<path d="M211 408.5L162 369M250.5 394.5L228.5 337M287 394.5L317 327M323.5 408.5L355.5 369" stroke="white" stroke-width="6"/>
<defs>
<filter id="filter0_d_1522_2085" x="184.728" y="313.573" width="81.1368" height="248.965" filterUnits="userSpaceOnUse" color-interpolation-filters="sRGB">
<feFlood flood-opacity="0" result="BackgroundImageFix"/>
<feColorMatrix in="SourceAlpha" type="matrix" values="0 0 0 0 0 0 0 0 0 0 0 0 0 0 0 0 0 0 127 0" result="hardAlpha"/>
<feOffset dy="4"/>
<feGaussianBlur stdDeviation="2"/>
<feComposite in2="hardAlpha" operator="out"/>
<feColorMatrix type="matrix" values="0 0 0 0 0 0 0 0 0 0 0 0 0 0 0 0 0 0 0.25 0"/>
<feBlend mode="normal" in2="BackgroundImageFix" result="effect1_dropShadow_1522_2085"/>
<feBlend mode="normal" in="SourceGraphic" in2="effect1_dropShadow_1522_2085" result="shape"/>
</filter>
<filter id="filter1_d_1522_2085" x="381.478" y="299.83" width="45.214" height="116.126" filterUnits="userSpaceOnUse" color-interpolation-filters="sRGB">
<feFlood flood-opacity="0" result="BackgroundImageFix"/>
<feColorMatrix in="SourceAlpha" type="matrix" values="0 0 0 0 0 0 0 0 0 0 0 0 0 0 0 0 0 0 127 0" result="hardAlpha"/>
<feOffset dy="4"/>
<feGaussianBlur stdDeviation="2"/>
<feComposite in2="hardAlpha" operator="out"/>
<feColorMatrix type="matrix" values="0 0 0 0 0 0 0 0 0 0 0 0 0 0 0 0 0 0 0.25 0"/>
<feBlend mode="normal" in2="BackgroundImageFix" result="effect1_dropShadow_1522_2085"/>
<feBlend mode="normal" in="SourceGraphic" in2="effect1_dropShadow_1522_2085" result="shape"/>
</filter>
<linearGradient id="paint0_linear_1522_2085" x1="300.568" y1="148.568" x2="300.568" y2="598.568" gradientUnits="userSpaceOnUse">
<stop stop-color="#BAB6F7"/>
<stop offset="1" stop-color="#5C52EA" stop-opacity="0"/>
</linearGradient>
<linearGradient id="paint1_linear_1522_2085" x1="72.1049" y1="329.792" x2="76.6925" y2="337.96" gradientUnits="userSpaceOnUse">
<stop/>
<stop offset="1" stop-opacity="0"/>
</linearGradient>
<linearGradient id="paint2_linear_1522_2085" x1="81.3929" y1="329.114" x2="93.3557" y2="350.409" gradientUnits="userSpaceOnUse">
<stop/>
<stop offset="1" stop-opacity="0"/>
</linearGradient>
<linearGradient id="paint3_linear_1522_2085" x1="92.9254" y1="342.198" x2="100.44" y2="355.515" gradientUnits="userSpaceOnUse">
<stop/>
<stop offset="1" stop-opacity="0"/>
</linearGradient>
<linearGradient id="paint4_linear_1522_2085" x1="399.915" y1="47.9865" x2="416.974" y2="57.3879" gradientUnits="userSpaceOnUse">
<stop/>
<stop offset="1" stop-opacity="0"/>
</linearGradient>
<linearGradient id="paint5_linear_1522_2085" x1="398.193" y1="67.7312" x2="441.851" y2="91.7093" gradientUnits="userSpaceOnUse">
<stop/>
<stop offset="1" stop-opacity="0"/>
</linearGradient>
<linearGradient id="paint6_linear_1522_2085" x1="423.615" y1="92.9263" x2="451.193" y2="108.123" gradientUnits="userSpaceOnUse">
<stop/>
<stop offset="1" stop-opacity="0"/>
</linearGradient>
<linearGradient id="paint7_linear_1522_2085" x1="32.3975" y1="145.769" x2="36.9358" y2="161.15" gradientUnits="userSpaceOnUse">
<stop/>
<stop offset="1" stop-opacity="0"/>
</linearGradient>
<linearGradient id="paint8_linear_1522_2085" x1="48.6642" y1="145.372" x2="58.6866" y2="179.453" gradientUnits="userSpaceOnUse">
<stop/>
<stop offset="1" stop-opacity="0"/>
</linearGradient>
<linearGradient id="paint9_linear_1522_2085" x1="60.7021" y1="167.702" x2="67.0444" y2="189.01" gradientUnits="userSpaceOnUse">
<stop/>
<stop offset="1" stop-opacity="0"/>
</linearGradient>
<linearGradient id="paint10_linear_1522_2085" x1="33.8692" y1="152.529" x2="37.2065" y2="163.87" gradientUnits="userSpaceOnUse">
<stop/>
<stop offset="1" stop-opacity="0"/>
</linearGradient>
<linearGradient id="paint11_linear_1522_2085" x1="23.9813" y1="161.151" x2="34.004" y2="195.231" gradientUnits="userSpaceOnUse">
<stop/>
<stop offset="1" stop-opacity="0"/>
</linearGradient>
<linearGradient id="paint12_linear_1522_2085" x1="26.42" y1="186.136" x2="31.3488" y2="202.694" gradientUnits="userSpaceOnUse">
<stop/>
<stop offset="1" stop-opacity="0"/>
</linearGradient>
<linearGradient id="paint13_linear_1522_2085" x1="447.104" y1="207.286" x2="450.2" y2="217.777" gradientUnits="userSpaceOnUse">
<stop/>
<stop offset="1" stop-opacity="0"/>
</linearGradient>
<linearGradient id="paint14_linear_1522_2085" x1="458.199" y1="207.015" x2="465.036" y2="230.263" gradientUnits="userSpaceOnUse">
<stop/>
<stop offset="1" stop-opacity="0"/>
</linearGradient>
<linearGradient id="paint15_linear_1522_2085" x1="466.411" y1="222.247" x2="470.737" y2="236.782" gradientUnits="userSpaceOnUse">
<stop/>
<stop offset="1" stop-opacity="0"/>
</linearGradient>
<linearGradient id="paint16_linear_1522_2085" x1="448.109" y1="211.897" x2="450.385" y2="219.633" gradientUnits="userSpaceOnUse">
<stop/>
<stop offset="1" stop-opacity="0"/>
</linearGradient>
<linearGradient id="paint17_linear_1522_2085" x1="441.364" y1="217.778" x2="448.201" y2="241.025" gradientUnits="userSpaceOnUse">
<stop/>
<stop offset="1" stop-opacity="0"/>
</linearGradient>
<linearGradient id="paint18_linear_1522_2085" x1="443.028" y1="234.822" x2="446.39" y2="246.117" gradientUnits="userSpaceOnUse">
<stop/>
<stop offset="1" stop-opacity="0"/>
</linearGradient>
<linearGradient id="paint19_linear_1522_2085" x1="489.753" y1="309.982" x2="487.507" y2="319.745" gradientUnits="userSpaceOnUse">
<stop/>
<stop offset="1" stop-opacity="0"/>
</linearGradient>
<linearGradient id="paint20_linear_1522_2085" x1="480.643" y1="312.018" x2="475.047" y2="336.459" gradientUnits="userSpaceOnUse">
<stop/>
<stop offset="1" stop-opacity="0"/>
</linearGradient>
<linearGradient id="paint21_linear_1522_2085" x1="472.597" y1="327.77" x2="469.029" y2="343.369" gradientUnits="userSpaceOnUse">
<stop/>
<stop offset="1" stop-opacity="0"/>
</linearGradient>
<linearGradient id="paint22_linear_1522_2085" x1="150.152" y1="413.716" x2="152.463" y2="421.548" gradientUnits="userSpaceOnUse">
<stop/>
<stop offset="1" stop-opacity="0"/>
</linearGradient>
<linearGradient id="paint23_linear_1522_2085" x1="142.963" y1="417.891" x2="148.066" y2="435.246" gradientUnits="userSpaceOnUse">
<stop/>
<stop offset="1" stop-opacity="0"/>
</linearGradient>
<linearGradient id="paint24_linear_1522_2085" x1="143.011" y1="430.982" x2="146.241" y2="441.833" gradientUnits="userSpaceOnUse">
<stop/>
<stop offset="1" stop-opacity="0"/>
</linearGradient>
<linearGradient id="paint25_linear_1522_2085" x1="151.11" y1="417.1" x2="152.809" y2="422.874" gradientUnits="userSpaceOnUse">
<stop/>
<stop offset="1" stop-opacity="0"/>
</linearGradient>
<linearGradient id="paint26_linear_1522_2085" x1="157.654" y1="418.214" x2="162.758" y2="435.568" gradientUnits="userSpaceOnUse">
<stop/>
<stop offset="1" stop-opacity="0"/>
</linearGradient>
<linearGradient id="paint27_linear_1522_2085" x1="162.545" y1="429.904" x2="165.055" y2="438.336" gradientUnits="userSpaceOnUse">
<stop/>
<stop offset="1" stop-opacity="0"/>
</linearGradient>
<linearGradient id="paint28_linear_1522_2085" x1="181.229" y1="90.9077" x2="177.636" y2="100.195" gradientUnits="userSpaceOnUse">
<stop/>
<stop offset="1" stop-opacity="0"/>
</linearGradient>
<linearGradient id="paint29_linear_1522_2085" x1="187.684" y1="97.7676" x2="178.677" y2="121.128" gradientUnits="userSpaceOnUse">
<stop/>
<stop offset="1" stop-opacity="0"/>
</linearGradient>
<linearGradient id="paint30_linear_1522_2085" x1="185.626" y1="115.389" x2="179.885" y2="130.278" gradientUnits="userSpaceOnUse">
<stop/>
<stop offset="1" stop-opacity="0"/>
</linearGradient>
<linearGradient id="paint31_linear_1522_2085" x1="306.74" y1="74.6639" x2="304.861" y2="83.0612" gradientUnits="userSpaceOnUse">
<stop/>
<stop offset="1" stop-opacity="0"/>
</linearGradient>
<linearGradient id="paint32_linear_1522_2085" x1="298.475" y1="75.0361" x2="294.487" y2="92.9817" gradientUnits="userSpaceOnUse">
<stop/>
<stop offset="1" stop-opacity="0"/>
</linearGradient>
<linearGradient id="paint33_linear_1522_2085" x1="292.663" y1="86.6761" x2="290.118" y2="98.0848" gradientUnits="userSpaceOnUse">
<stop/>
<stop offset="1" stop-opacity="0"/>
</linearGradient>
<linearGradient id="paint34_linear_1522_2085" x1="306.068" y1="78.1782" x2="304.676" y2="84.3959" gradientUnits="userSpaceOnUse">
<stop/>
<stop offset="1" stop-opacity="0"/>
</linearGradient>
<linearGradient id="paint35_linear_1522_2085" x1="311.257" y1="82.3668" x2="307.27" y2="100.313" gradientUnits="userSpaceOnUse">
<stop/>
<stop offset="1" stop-opacity="0"/>
</linearGradient>
<linearGradient id="paint36_linear_1522_2085" x1="310.347" y1="95.1149" x2="308.37" y2="103.981" gradientUnits="userSpaceOnUse">
<stop/>
<stop offset="1" stop-opacity="0"/>
</linearGradient>
</defs>
</svg>
