<svg width="521" height="542" viewBox="0 0 521 542" fill="none" xmlns="http://www.w3.org/2000/svg">
<ellipse cx="260" cy="303.5" rx="200" ry="197.5" fill="url(#paint0_linear_1520_2045)"/>
<path d="M223.203 276.352C223.367 280.359 197.437 306.907 184.644 323.511C171.851 340.115 145.5 378.636 145.5 378.636L115.163 365.729C115.163 365.729 130.416 336.862 147.658 310.435C164.9 284.007 183.033 263.646 187.429 261.636C191.417 259.812 199.011 261.201 205.319 263.788C211.627 266.374 223.04 272.334 223.203 276.352Z" fill="#655BF5"/>
<path d="M145.5 378.636C148.045 376.934 144.214 350.448 143.17 335.266C142.126 320.084 140.017 285.778 140.017 285.778L106.354 279.585C106.354 279.585 109.536 309.272 108.514 331.553C107.491 353.835 105.949 359.137 108.524 362.693C110.862 365.919 118.318 377.413 125.298 380.057C132.278 382.7 142.949 380.343 145.5 378.636V378.636Z" fill="#655BF5"/>
<path d="M310.995 295.22C308.824 298.61 317.832 334.399 320.5 355.092C323.168 375.785 326.476 422.15 326.476 422.15L359.287 425.944C359.287 425.944 360.7 393.417 359.155 362.021C357.61 330.625 352.22 304.042 349.432 300.132C346.901 296.583 339.621 294.039 332.848 293.166C326.075 292.293 313.172 291.822 310.995 295.22Z" fill="#655BF5"/>
<path d="M215.193 228.929L161.709 374.902C161.709 374.902 142.115 439.667 146.787 452.118C149.741 459.993 158.162 470.769 186.537 482.405C214.912 494.042 230.178 495.714 248.809 497.695C253.339 498.176 281.841 497.594 290.956 486.209C300.712 474.023 312.191 416.449 312.191 416.449L341.383 262.457L215.193 228.929Z" fill="#5C52EA"/>
<path d="M242.487 166.526C242.487 166.526 246.32 159.093 258.637 160.174" stroke="#2F22F2" stroke-width="2" stroke-linecap="round" stroke-linejoin="round"/>
<path d="M405.005 163.437C405.005 163.437 468.915 147.328 473.194 200.385C477.473 253.443 410.224 234.424 410.224 234.424L405.005 163.437Z" fill="#655BF5"/>
<path d="M423.887 182.842C423.887 182.842 453.655 175.338 455.648 200.052C457.641 224.765 426.318 215.906 426.318 215.906L423.887 182.842Z" fill="#F4D2BA"/>
<path d="M151.936 152.756C151.936 152.756 85.4742 132.375 88.6147 185.395C91.7551 238.416 156.646 223.727 156.646 223.727L151.936 152.756Z" fill="#655BF5"/>
<path d="M135.688 171.01C135.688 171.01 104.732 161.517 106.194 186.212C107.657 210.908 137.882 204.066 137.882 204.066L135.688 171.01Z" fill="#F4D2BA"/>
<path opacity="0.997" d="M361.01 131.97L194.632 124.598C171.843 123.589 154.258 140.035 155.354 161.332L158.201 216.66C159.297 237.957 178.659 256.04 201.447 257.05L367.826 264.422C390.614 265.432 408.199 248.985 407.104 227.688L404.256 172.361C403.16 151.063 383.798 132.98 361.01 131.97Z" fill="#655BF5"/>
<path d="M231.614 148.914C273.634 164.231 288.723 164.304 325.774 151.884C362.259 137.637 385.511 171.605 379.599 198.181C373.664 220.689 367.494 247.395 341.127 243.248C293.293 235.726 294.236 223.759 229.189 239.484C192.524 248.348 185.214 198.345 183.279 191.884C174.068 161.139 189.594 133.597 231.614 148.914Z" fill="#F4D2BA"/>
<path opacity="0.997" d="M252.56 210.548C256.373 210.68 259.055 203.009 258.552 193.414C258.049 183.819 254.55 175.933 250.738 175.801C246.925 175.668 244.242 183.339 244.745 192.934C245.249 202.529 248.747 210.415 252.56 210.548Z" fill="#160900"/>
<path opacity="0.997" d="M311.72 213.22C315.533 213.352 318.215 205.681 317.712 196.086C317.209 186.491 313.71 178.605 309.898 178.473C306.085 178.341 303.402 186.012 303.906 195.607C304.409 205.202 307.907 213.087 311.72 213.22Z" fill="#160900"/>
<path d="M272.069 202.273C274.1 197.819 286.703 198.135 290.168 203.055C292.793 206.782 285.459 211.503 282.237 211.694C279.251 211.871 270.037 206.728 272.069 202.273Z" fill="#502D16"/>
<path d="M233.399 166.35C233.399 166.35 237.232 158.917 249.549 159.998" stroke="#867575" stroke-width="3" stroke-linecap="round" stroke-linejoin="round"/>
<path d="M303.187 175.673C303.187 175.673 311.034 171.705 321.5 178.91" stroke="#787878" stroke-width="3" stroke-linecap="round" stroke-linejoin="round"/>
<path d="M322.908 230.103C322.908 230.103 328.136 219.572 344.523 220.826" stroke="#867575" stroke-width="3" stroke-linecap="round" stroke-linejoin="round"/>
<path opacity="0.997" d="M296.275 317.699C300.829 300.924 289.063 283.236 269.995 278.193C250.926 273.149 231.777 282.661 227.223 299.436L195.085 417.823C190.531 434.599 202.297 452.286 221.366 457.33C240.434 462.373 259.583 452.862 264.137 436.086L296.275 317.699Z" fill="#F4D2BA" stroke="#867575" stroke-width="2" stroke-linecap="round" stroke-linejoin="round"/>
<path d="M326.475 422.15L338.469 403.945L350.462 385.739C361.318 369.61 367.405 360.567 378.261 344.438L410.551 355.688C410.551 355.688 392.758 379.828 382.356 399.628C371.955 419.429 370.605 424.783 366.573 426.591C362.914 428.232 350.635 434.506 343.251 433.35C335.868 432.194 327.82 424.887 326.475 422.15Z" fill="#655BF5"/>
<path d="M368.37 320.565L372.054 306.994C376.417 310.145 384.615 310.068 386.195 303.678C387.766 297.888 381.894 293.118 375.809 293.162L379.174 280.767L393.686 284.606C391.114 276.761 397.204 273.241 404.313 275.121C412.898 277.392 413.788 283.345 408.095 288.417L424.46 292.745L420.991 305.523C427.801 305.606 432.231 308.024 431.133 315.861C428.253 322.967 423.139 322.448 417.252 319.297L413.644 332.587L368.37 320.565Z" fill="#FF558F" stroke="#FA0055" stroke-width="2" stroke-linecap="round" stroke-linejoin="round"/>
<path d="M140.59 214.788L154.153 222.819C149.696 225.401 147.724 232.416 154.149 236.065C159.935 239.491 166.498 236.206 167.977 231.004L180.363 238.338L172.629 249.323C181.647 249.958 184.902 257.023 181.113 262.405C176.539 268.902 168.937 266.909 164.95 260.23L156.229 272.616L116.413 249.04L124.979 236.896C116.787 237.168 111.542 230.251 115.897 224.45C120.041 218.654 128.02 218.643 132.49 226.272L140.59 214.788Z" fill="#29B3B6" stroke="#1D7F81" stroke-width="2" stroke-linecap="round" stroke-linejoin="round"/>
<path d="M142.339 276.743L146.804 267.965L138.005 263.78L134.765 269.58L142.339 276.743Z" fill="#F4D2BA" stroke="#D09494" stroke-width="2" stroke-linecap="round" stroke-linejoin="round"/>
<path d="M113.454 289.845L128.738 289.947C132.7 288.367 132.179 283.778 132.179 283.778C136.372 283.209 136.234 279.378 136.234 279.378C139.835 279.746 141.37 272.855 141.37 272.855L130.77 259.835C130.77 259.835 137.067 267.63 146.634 269.577C156.201 271.523 153.136 265.458 153.136 265.458C153.136 265.458 142.832 256.311 138.178 253.621C133.524 250.93 130.55 250.728 130.55 250.728L112.929 253.657C112.929 253.657 102.714 260.296 102.563 280.689C102.411 301.082 121.509 302.63 121.509 302.63C121.509 302.63 128.601 303.776 134.353 287.856C134.353 287.856 154.874 284.162 130.77 259.835" fill="#F4D2BA"/>
<path d="M113.454 289.845L128.738 289.947C132.7 288.367 132.179 283.778 132.179 283.778C136.372 283.209 136.234 279.378 136.234 279.378C139.835 279.746 141.37 272.855 141.37 272.855L130.77 259.835C130.77 259.835 137.067 267.63 146.634 269.577C156.201 271.523 153.136 265.458 153.136 265.458C153.136 265.458 142.832 256.311 138.178 253.621C133.524 250.93 130.55 250.728 130.55 250.728L112.929 253.657C112.929 253.657 102.714 260.296 102.563 280.689C102.411 301.082 121.509 302.63 121.509 302.63C121.509 302.63 128.601 303.776 134.353 287.856C134.353 287.856 154.874 284.162 130.77 259.835" stroke="#D09494" stroke-width="2" stroke-linecap="round" stroke-linejoin="round"/>
<path d="M132.179 283.778C132.179 283.778 130.517 281.222 129.478 281.021C128.439 280.819 115.478 279.288 115.478 279.288" stroke="#D09494" stroke-width="2" stroke-linecap="round" stroke-linejoin="round"/>
<path d="M136.233 279.377L132.273 272.273C132.273 272.273 131.53 270.982 129.415 270.714C127.3 270.447 117.71 269.516 117.71 269.516" stroke="#D09494" stroke-width="2" stroke-linecap="round" stroke-linejoin="round"/>
<path d="M130.77 259.835C128.402 257.719 125.172 259.205 121.666 259.342" stroke="#D09494" stroke-width="2" stroke-linecap="round" stroke-linejoin="round"/>
<path d="M376.061 339.607L376.641 329.802L386.381 330.52L386.249 337.142L376.061 339.607Z" fill="#F4D2BA" stroke="#D09494" stroke-width="2" stroke-linecap="round" stroke-linejoin="round"/>
<path d="M394.44 365.21L381.152 357.755C378.521 354.432 381.296 350.714 381.296 350.714C377.954 348.152 380.014 344.902 380.014 344.902C376.708 343.444 378.87 336.718 378.87 336.718L394.645 330.674C394.645 330.674 385.243 334.317 375.971 331.281C366.7 328.245 372.426 324.505 372.426 324.505C372.426 324.505 385.984 321.669 391.377 321.636C396.771 321.603 399.448 322.895 399.448 322.895L413.225 334.128C413.225 334.128 418.708 344.919 408.51 362.655C398.311 380.391 380.987 372.306 380.987 372.306C380.987 372.306 374.265 369.798 377.348 353.173C377.348 353.173 361.448 339.846 394.645 330.674" fill="#F4D2BA"/>
<path d="M394.44 365.21L381.152 357.755C378.521 354.432 381.296 350.714 381.296 350.714C377.954 348.152 380.014 344.902 380.014 344.902C376.708 343.444 378.87 336.718 378.87 336.718L394.645 330.674C394.645 330.674 385.243 334.317 375.971 331.281C366.7 328.245 372.426 324.505 372.426 324.505C372.426 324.505 385.984 321.669 391.377 321.636C396.771 321.603 399.448 322.895 399.448 322.895L413.225 334.128C413.225 334.128 418.708 344.919 408.51 362.655C398.311 380.391 380.987 372.306 380.987 372.306C380.987 372.306 374.265 369.798 377.348 353.173C377.348 353.173 361.448 339.846 394.645 330.674" stroke="#D09494" stroke-width="2" stroke-linecap="round" stroke-linejoin="round"/>
<path d="M381.296 350.714C381.296 350.714 384.03 349.321 385.032 349.659C386.034 349.997 398.034 355.068 398.034 355.068" stroke="#D09494" stroke-width="2" stroke-linecap="round" stroke-linejoin="round"/>
<path d="M380.014 344.902L387.043 340.704C387.043 340.704 388.34 339.953 390.307 340.765C392.274 341.577 401.051 345.504 401.051 345.504" stroke="#D09494" stroke-width="2" stroke-linecap="round" stroke-linejoin="round"/>
<path d="M394.645 330.674C397.768 330.01 399.813 332.891 402.779 334.74" stroke="#D09494" stroke-width="2" stroke-linecap="round" stroke-linejoin="round"/>
<path d="M295.182 62.0767C292.12 60.866 289.799 58.0228 294.325 54.9085C299.792 51.1473 313.651 46.4464 324.009 58.9538C336.363 73.872 306.603 89.1454 305.408 91.1483C303.584 94.2053 303.03 99.2254 301.046 100.859C299.187 102.39 294.066 100.817 293.757 98.5668C293.245 94.8452 296.791 88.4553 296.791 88.4553C296.791 88.4553 297.929 86.1917 301.261 84.4651C304.593 82.7385 314.134 75.7441 316.316 72.8973C318.584 69.9384 320.669 63.6334 313.773 59.5653C306.172 55.082 298.189 63.2657 295.182 62.0766L295.182 62.0767Z" fill="#A3AED0"/>
<path opacity="0.997" d="M294.468 112.327C296.963 112.987 299.469 111.742 300.065 109.547C300.661 107.352 299.122 105.037 296.626 104.377C294.131 103.717 291.625 104.962 291.029 107.157C290.433 109.352 291.973 111.667 294.468 112.327Z" fill="#A3AED0"/>
<path d="M438.615 258.865C437.33 258.939 435.925 258.267 436.729 256.301C437.701 253.927 441.244 249.739 447.471 252.671C454.899 256.169 448.448 267.123 448.5 268.089C448.578 269.563 449.516 271.559 449.224 272.522C448.95 273.425 446.901 273.721 446.296 272.923C445.295 271.603 445.042 268.568 445.042 268.568C445.042 268.568 444.913 267.514 445.632 266.281C446.351 265.048 447.95 260.742 448.037 259.285C448.127 257.771 447.41 255.023 444.215 254.682C440.695 254.307 439.877 258.792 438.615 258.865L438.615 258.865Z" fill="#A3AED0"/>
<path opacity="0.997" d="M449.32 277.782C450.303 277.597 450.859 276.685 450.562 275.745C450.265 274.805 449.228 274.193 448.245 274.378C447.262 274.563 446.705 275.474 447.002 276.414C447.299 277.355 448.337 277.967 449.32 277.782Z" fill="#A3AED0"/>
<path d="M109.794 403.798C108.541 403.303 107.592 402.139 109.444 400.865C111.681 399.326 117.352 397.402 121.59 402.52C126.645 408.625 114.468 414.874 113.979 415.694C113.233 416.945 113.006 418.999 112.194 419.667C111.433 420.294 109.338 419.65 109.211 418.729C109.002 417.207 110.453 414.592 110.453 414.592C110.453 414.592 110.919 413.666 112.282 412.959C113.646 412.253 117.549 409.391 118.442 408.226C119.37 407.015 120.224 404.435 117.402 402.77C114.292 400.936 111.025 404.285 109.794 403.798L109.794 403.798Z" fill="#A3AED0"/>
<path opacity="0.997" d="M109.502 424.36C110.523 424.63 111.548 424.121 111.792 423.222C112.036 422.324 111.406 421.377 110.385 421.107C109.364 420.837 108.338 421.346 108.094 422.244C107.85 423.143 108.481 424.09 109.502 424.36Z" fill="#A3AED0"/>
<path d="M344.369 461.829C343.45 460.993 343.121 459.65 345.416 459.082C348.186 458.396 354.288 458.435 355.789 464.359C357.581 471.425 343.491 473.247 342.66 473.832C341.391 474.724 340.225 476.5 339.168 476.848C338.178 477.174 336.555 475.942 336.869 475.074C337.387 473.64 339.938 471.741 339.938 471.741C339.938 471.741 340.797 471.053 342.378 470.843C343.959 470.633 348.877 469.277 350.239 468.508C351.656 467.709 353.642 465.655 351.829 463.278C349.831 460.658 345.271 462.65 344.369 461.829L344.369 461.829Z" fill="#A3AED0"/>
<path opacity="0.997" d="M334.934 480.19C335.756 480.757 336.949 480.622 337.599 479.888C338.25 479.154 338.11 478.1 337.288 477.533C336.467 476.966 335.273 477.102 334.623 477.836C333.973 478.569 334.113 479.624 334.934 480.19Z" fill="#A3AED0"/>
<path d="M133.378 110.589C132.46 109.753 132.131 108.41 134.425 107.842C137.196 107.156 143.297 107.194 144.799 113.119C146.59 120.185 132.5 122.007 131.669 122.591C130.401 123.484 129.234 125.26 128.178 125.608C127.187 125.934 125.564 124.702 125.878 123.834C126.396 122.4 128.948 120.501 128.948 120.501C128.948 120.501 129.807 119.813 131.387 119.603C132.968 119.393 137.886 118.037 139.249 117.268C140.665 116.468 142.651 114.414 140.838 112.037C138.84 109.418 134.28 111.41 133.378 110.589L133.378 110.589Z" fill="#A3AED0"/>
<path opacity="0.997" d="M123.944 128.95C124.766 129.517 125.959 129.381 126.609 128.648C127.259 127.914 127.12 126.86 126.298 126.293C125.476 125.726 124.283 125.862 123.633 126.595C122.983 127.329 123.122 128.383 123.944 128.95Z" fill="#A3AED0"/>
<defs>
<linearGradient id="paint0_linear_1520_2045" x1="260" y1="106" x2="260" y2="501" gradientUnits="userSpaceOnUse">
<stop stop-color="#FF8BB5"/>
<stop offset="1" stop-color="#FFF1F7"/>
</linearGradient>
</defs>
</svg>
