<svg width="720" height="832" viewBox="0 0 720 832" fill="none" xmlns="http://www.w3.org/2000/svg">
<circle cx="405.701" cy="403.562" r="225" fill="url(#paint0_linear_1430_153)"/>
<g clip-path="url(#clip0_1430_153)">
<path d="M374.387 375.988C374.549 380.646 345.143 411.649 330.615 431.021C316.088 450.394 286.14 495.317 286.14 495.317L251.981 480.48C251.981 480.48 269.353 446.84 288.955 416.024C308.557 385.208 329.132 361.439 334.103 359.078C338.613 356.936 347.174 358.509 354.277 361.481C361.38 364.454 374.225 371.319 374.387 375.988Z" fill="#655BF5"/>
<path d="M286.14 495.317C289.022 493.324 284.846 462.556 283.753 444.914C282.66 427.271 280.471 387.404 280.471 387.404L242.522 380.39C242.522 380.39 245.946 414.882 244.669 440.789C243.391 466.696 241.621 472.868 244.507 476.987C247.127 480.725 255.476 494.045 263.337 497.08C271.198 500.114 283.251 497.316 286.14 495.317V495.317Z" fill="#655BF5"/>
<path d="M473.342 397.439C470.873 401.392 480.838 442.945 483.733 466.985C486.628 491.026 490.102 544.905 490.102 544.905L527.103 549.135C527.103 549.135 528.879 511.315 527.311 474.827C525.743 438.339 519.809 407.466 516.685 402.937C513.849 398.826 505.649 395.908 498.012 394.931C490.374 393.953 475.817 393.477 473.342 397.439Z" fill="#655BF5"/>
<path d="M365.613 320.905L304.451 490.887C304.451 490.887 281.981 566.282 287.182 580.73C290.472 589.868 299.913 602.348 331.865 615.719C363.818 629.09 381.034 630.949 402.045 633.15C407.154 633.685 439.318 632.851 449.666 619.566C460.742 605.347 474.016 538.356 474.016 538.356L507.813 359.186L365.613 320.905Z" fill="#5C52EA"/>
<path d="M396.542 248.156C396.542 248.156 401.223 239.462 415.231 240.799" stroke="#2F22F2" stroke-width="2" stroke-linecap="round" stroke-linejoin="round"/>
<path d="M580.406 242.284C580.406 242.284 656.215 225.358 658.3 287.461C660.384 349.563 582.602 325.358 582.602 325.358L580.406 242.284Z" fill="#655BF5"/>
<path d="M601.468 265.51C601.468 265.51 636.779 257.626 637.749 286.552C638.72 315.477 602.491 304.203 602.491 304.203L601.468 265.51Z" fill="#F4D2BA"/>
<path d="M297.695 233.58C297.695 233.58 220.909 207.807 221.661 269.832C222.413 331.858 299.294 316.619 299.294 316.619L297.695 233.58Z" fill="#655BF5"/>
<path d="M277.639 254.422C277.639 254.422 241.874 242.417 242.224 271.307C242.575 300.197 278.384 293.099 278.384 293.099L277.639 254.422Z" fill="#F4D2BA"/>
<path opacity="0.997" d="M534.1 207.903L344.16 198.021C318.144 196.667 297.364 215.792 297.745 240.737L298.737 305.541C299.119 330.486 320.518 351.806 346.533 353.159L536.473 363.042C562.489 364.396 583.269 345.271 582.888 320.326L581.896 255.522C581.514 230.576 560.115 209.257 534.1 207.903Z" fill="#655BF5"/>
<path d="M385.517 226.777C432.888 245.006 450.121 245.194 492.959 230.893C535.225 214.449 560.387 254.403 552.539 285.498C544.832 311.827 536.684 343.074 506.734 338.037C452.399 328.901 453.97 314.887 379.015 332.869C336.765 343.006 330.475 284.374 328.53 276.792C319.275 240.71 338.145 208.547 385.517 226.777Z" fill="#F4D2BA"/>
<path opacity="0.997" d="M407.348 299.28C411.917 299.534 415.442 290.724 415.221 279.602C415 268.48 411.116 259.257 406.547 259.003C401.977 258.748 398.452 267.558 398.673 278.68C398.894 289.803 402.778 299.025 407.348 299.28Z" fill="#160900"/>
<path opacity="0.997" d="M474.086 302.06C478.656 302.315 482.181 293.505 481.96 282.383C481.739 271.26 477.855 262.038 473.285 261.784C468.716 261.529 465.191 270.339 465.412 281.461C465.633 292.583 469.517 301.806 474.086 302.06Z" fill="#160900"/>
<path d="M429.877 289.447C432.384 284.259 446.82 284.747 450.598 290.532C453.458 294.913 444.861 300.363 441.16 300.556C437.729 300.735 427.371 294.636 429.877 289.447Z" fill="#502D16"/>
<path d="M386.289 248.002C386.289 248.002 390.97 239.308 404.978 240.645" stroke="#867575" stroke-width="3" stroke-linecap="round" stroke-linejoin="round"/>
<path d="M465.171 258.458C465.171 258.458 474.229 253.796 485.825 262.246" stroke="#787878" stroke-width="3" stroke-linecap="round" stroke-linejoin="round"/>
<path d="M486.836 321.594C486.836 321.594 493.24 309.284 511.898 310.857" stroke="#867575" stroke-width="3" stroke-linecap="round" stroke-linejoin="round"/>
<path opacity="0.997" d="M456.607 423.651C461.839 404.125 448.662 383.628 427.174 377.871C405.686 372.113 384.026 383.275 378.794 402.801L341.871 540.597C336.639 560.124 349.817 580.62 371.305 586.378C392.792 592.136 414.453 580.974 419.685 561.447L456.607 423.651Z" fill="#F4D2BA" stroke="#867575" stroke-width="2" stroke-linecap="round" stroke-linejoin="round"/>
<path d="M490.101 544.904L503.736 523.675L517.37 502.447C529.71 483.638 536.628 473.092 548.967 454.283L585.339 467.183C585.339 467.183 565.128 495.342 553.281 518.417C541.434 541.492 539.881 547.723 535.321 549.846C531.184 551.774 517.293 559.135 508.968 557.832C500.643 556.529 491.604 548.079 490.101 544.904Z" fill="#655BF5"/>
<path d="M537.94 426.586L542.173 410.789C547.077 414.429 556.329 414.294 558.147 406.856C559.952 400.118 553.353 394.605 546.487 394.689L550.352 380.263L566.706 384.645C563.847 375.54 570.738 371.415 578.75 373.561C588.423 376.153 589.395 383.069 582.943 388.996L601.384 393.937L597.399 408.81C605.082 408.869 610.067 411.655 608.785 420.772C605.496 429.049 599.728 428.473 593.103 424.842L588.958 440.311L537.94 426.586Z" fill="#FF558F" stroke="#FA0055" stroke-width="2" stroke-linecap="round" stroke-linejoin="round"/>
<path d="M281.514 304.877L296.772 314.138C291.729 317.164 289.464 325.33 296.694 329.536C303.203 333.487 310.627 329.632 312.324 323.577L326.26 332.035L317.472 344.847C327.644 345.535 331.277 353.73 326.972 360.007C321.774 367.585 313.208 365.31 308.747 357.567L298.837 372.014L254.042 344.826L263.775 330.663C254.53 331.024 248.65 323.012 253.596 316.245C258.305 309.484 267.308 309.428 272.309 318.272L281.514 304.877Z" fill="#29B3B6" stroke="#1D7F81" stroke-width="2" stroke-linecap="round" stroke-linejoin="round"/>
<path d="M283.141 376.888L288.228 366.659L278.324 361.843L274.635 368.603L283.141 376.888Z" fill="#F4D2BA" stroke="#D09494" stroke-width="2" stroke-linecap="round" stroke-linejoin="round"/>
<path d="M250.475 392.277L267.72 392.311C272.2 390.454 271.638 385.122 271.638 385.122C276.372 384.437 276.238 379.984 276.238 379.984C280.299 380.393 282.069 372.373 282.069 372.373L270.182 357.296C270.182 357.296 277.244 366.324 288.028 368.534C298.812 370.744 295.388 363.711 295.388 363.711C295.388 363.711 283.811 353.134 278.575 350.032C273.339 346.93 269.985 346.711 269.985 346.711L250.086 350.213C250.086 350.213 238.522 357.987 238.237 381.694C237.953 405.4 259.493 407.095 259.493 407.095C259.493 407.095 267.489 408.388 274.068 389.85C274.068 389.85 297.243 385.443 270.182 357.296" fill="#F4D2BA"/>
<path d="M250.475 392.277L267.72 392.311C272.2 390.454 271.638 385.122 271.638 385.122C276.372 384.437 276.238 379.984 276.238 379.984C280.299 380.393 282.069 372.373 282.069 372.373L270.182 357.296C270.182 357.296 277.244 366.324 288.028 368.534C298.812 370.744 295.388 363.711 295.388 363.711C295.388 363.711 283.811 353.134 278.575 350.032C273.339 346.93 269.985 346.711 269.985 346.711L250.086 350.213C250.086 350.213 238.522 357.987 238.237 381.694C237.953 405.4 259.493 407.095 259.493 407.095C259.493 407.095 267.489 408.388 274.068 389.85C274.068 389.85 297.243 385.443 270.182 357.296" stroke="#D09494" stroke-width="2" stroke-linecap="round" stroke-linejoin="round"/>
<path d="M271.638 385.122C271.638 385.122 269.777 382.16 268.606 381.931C267.435 381.702 252.819 379.994 252.819 379.994" stroke="#D09494" stroke-width="2" stroke-linecap="round" stroke-linejoin="round"/>
<path d="M276.237 379.984L271.808 371.747C271.808 371.747 270.977 370.25 268.592 369.951C266.207 369.652 255.391 368.622 255.391 368.622" stroke="#D09494" stroke-width="2" stroke-linecap="round" stroke-linejoin="round"/>
<path d="M270.182 357.296C267.521 354.85 263.868 356.595 259.912 356.773" stroke="#D09494" stroke-width="2" stroke-linecap="round" stroke-linejoin="round"/>
<path d="M546.512 448.679L547.221 437.277L558.207 438.059L558.021 445.757L546.512 448.679Z" fill="#F4D2BA" stroke="#D09494" stroke-width="2" stroke-linecap="round" stroke-linejoin="round"/>
<path d="M567.107 478.34L552.155 469.747C549.205 465.898 552.357 461.562 552.357 461.562C548.6 458.601 550.943 454.812 550.943 454.812C547.221 453.135 549.698 445.305 549.698 445.305L567.531 438.192C567.531 438.192 556.902 442.479 546.457 439.001C536.013 435.523 542.495 431.144 542.495 431.144C542.495 431.144 557.809 427.773 563.894 427.704C569.98 427.636 572.994 429.123 572.994 429.123L588.476 442.106C588.476 442.106 594.604 454.62 582.997 475.293C571.39 495.966 551.888 486.663 551.888 486.663C551.888 486.663 544.317 483.785 547.888 464.441C547.888 464.441 530.022 449.037 567.531 438.192" fill="#F4D2BA"/>
<path d="M567.107 478.34L552.155 469.747C549.205 465.898 552.357 461.562 552.357 461.562C548.6 458.601 550.943 454.812 550.943 454.812C547.221 453.135 549.698 445.305 549.698 445.305L567.531 438.192C567.531 438.192 556.902 442.479 546.457 439.001C536.013 435.523 542.495 431.144 542.495 431.144C542.495 431.144 557.809 427.773 563.894 427.704C569.98 427.636 572.994 429.123 572.994 429.123L588.476 442.106C588.476 442.106 594.604 454.62 582.997 475.293C571.39 495.966 551.888 486.663 551.888 486.663C551.888 486.663 544.317 483.785 547.888 464.441C547.888 464.441 530.022 449.037 567.531 438.192" stroke="#D09494" stroke-width="2" stroke-linecap="round" stroke-linejoin="round"/>
<path d="M552.357 461.562C552.357 461.562 555.45 459.927 556.579 460.314C557.707 460.702 571.219 466.531 571.219 466.531" stroke="#D09494" stroke-width="2" stroke-linecap="round" stroke-linejoin="round"/>
<path d="M550.943 454.812L558.897 449.894C558.897 449.894 560.365 449.013 562.58 449.946C564.795 450.879 574.677 455.396 574.677 455.396" stroke="#D09494" stroke-width="2" stroke-linecap="round" stroke-linejoin="round"/>
<path d="M567.531 438.192C571.059 437.404 573.349 440.741 576.687 442.874" stroke="#D09494" stroke-width="2" stroke-linecap="round" stroke-linejoin="round"/>
<path d="M456.799 126.506C453.35 125.115 450.747 121.823 455.872 118.178C462.062 113.775 477.726 108.235 489.343 122.717C503.2 139.991 469.535 157.909 468.175 160.244C466.101 163.808 465.447 169.646 463.2 171.556C461.093 173.347 455.324 171.547 454.987 168.932C454.431 164.609 458.468 157.161 458.468 157.161C458.468 157.161 459.764 154.523 463.533 152.498C467.303 150.473 478.107 142.289 480.585 138.968C483.161 135.516 485.549 128.175 477.79 123.484C469.239 118.314 460.185 127.871 456.798 126.506L456.799 126.506Z" fill="#A3AED0"/>
<path opacity="0.997" d="M455.713 184.924C458.525 185.677 461.36 184.217 462.045 181.661C462.729 179.106 461.005 176.424 458.193 175.67C455.381 174.917 452.546 176.377 451.861 178.933C451.177 181.488 452.901 184.17 455.713 184.924Z" fill="#A3AED0"/>
<path d="M617.509 354.479C616.042 354.57 614.452 353.797 615.406 351.516C616.557 348.762 620.675 343.895 627.723 347.268C636.131 351.291 628.573 364.008 628.615 365.127C628.677 366.834 629.71 369.143 629.359 370.26C629.03 371.307 626.688 371.657 626.012 370.735C624.895 369.21 624.662 365.695 624.662 365.695C624.662 365.695 624.535 364.474 625.377 363.043C626.219 361.612 628.122 356.617 628.248 354.929C628.379 353.174 627.611 349.993 623.973 349.611C619.965 349.19 618.95 354.39 617.509 354.479L617.509 354.479Z" fill="#A3AED0"/>
<path opacity="0.997" d="M629.499 376.399C630.62 376.181 631.271 375.123 630.952 374.036C630.633 372.948 629.465 372.244 628.344 372.462C627.222 372.68 626.572 373.739 626.891 374.826C627.21 375.913 628.378 376.618 629.499 376.399Z" fill="#A3AED0"/>
<path d="M245.711 524.764C244.3 524.195 243.235 522.847 245.332 521.356C247.865 519.554 254.274 517.287 259.028 523.213C264.698 530.281 250.923 537.614 250.366 538.569C249.517 540.027 249.25 542.416 248.33 543.198C247.468 543.93 245.108 543.194 244.97 542.124C244.742 540.355 246.394 537.307 246.394 537.307C246.394 537.307 246.925 536.228 248.467 535.399C250.009 534.57 254.43 531.222 255.444 529.863C256.498 528.45 257.475 525.447 254.301 523.527C250.802 521.412 247.097 525.322 245.711 524.763L245.711 524.764Z" fill="#A3AED0"/>
<path opacity="0.997" d="M245.266 548.667C246.417 548.976 247.577 548.378 247.857 547.332C248.137 546.287 247.431 545.189 246.281 544.881C245.13 544.573 243.97 545.17 243.69 546.216C243.41 547.262 244.116 548.359 245.266 548.667Z" fill="#A3AED0"/>
<path d="M509.867 590.885C508.802 589.913 508.396 588.345 510.996 587.665C514.136 586.844 521.085 586.849 522.932 593.768C525.135 602.021 509.129 604.245 508.196 604.935C506.772 605.986 505.485 608.072 504.29 608.486C503.169 608.874 501.293 607.444 501.63 606.427C502.187 604.745 505.049 602.508 505.049 602.508C505.049 602.508 506.012 601.697 507.807 601.441C509.603 601.185 515.172 599.566 516.706 598.658C518.301 597.713 520.516 595.298 518.397 592.53C516.061 589.479 510.914 591.84 509.867 590.885L509.867 590.885Z" fill="#A3AED0"/>
<path opacity="0.997" d="M499.354 612.343C500.298 612.999 501.647 612.829 502.367 611.963C503.087 611.098 502.906 609.866 501.962 609.21C501.019 608.555 499.67 608.725 498.95 609.59C498.23 610.455 498.411 611.688 499.354 612.343Z" fill="#A3AED0"/>
<path d="M273.753 183.743C272.688 182.771 272.282 181.204 274.882 180.524C278.022 179.702 284.971 179.707 286.818 186.626C289.02 194.879 273.015 197.104 272.082 197.793C270.658 198.845 269.371 200.93 268.176 201.344C267.055 201.732 265.179 200.302 265.516 199.285C266.073 197.604 268.935 195.366 268.935 195.366C268.935 195.366 269.898 194.556 271.693 194.299C273.489 194.043 279.058 192.424 280.592 191.516C282.187 190.572 284.402 188.156 282.283 185.388C279.947 182.337 274.8 184.698 273.753 183.743L273.753 183.743Z" fill="#A3AED0"/>
<path opacity="0.997" d="M263.24 205.201C264.184 205.857 265.533 205.687 266.253 204.822C266.973 203.957 266.792 202.724 265.848 202.068C264.905 201.413 263.556 201.583 262.836 202.448C262.116 203.313 262.297 204.546 263.24 205.201Z" fill="#A3AED0"/>
</g>
<defs>
<linearGradient id="paint0_linear_1430_153" x1="405.701" y1="178.562" x2="405.701" y2="628.562" gradientUnits="userSpaceOnUse">
<stop stop-color="#FF8BB5"/>
<stop offset="1" stop-color="#FFF1F7"/>
</linearGradient>
<clipPath id="clip0_1430_153">
<rect width="554" height="712" fill="white" transform="translate(184.279) rotate(15)"/>
</clipPath>
</defs>
</svg>
